# xmcd
#
# Track frame offsets:
#	150
#	9350
#	25338
#	36588
#	49985
#	69213
#	89750
#	111350
#	129953
#	144563
#	165825
#	180470
#	196850
#	220738
#	234163
#
# Disc length: 3423 seconds
#
# Revision: 1
# Processed by: cddbd v1.4PL0 Copyright (c) Steve Scherf et al.
# Submitted via: audiograbber 1.81.03
#
DISCID=c40d5d0f
DTITLE=The Bayou Brothers - Swamp Stomping Blues
DYEAR=1995
DGENRE=Blues
TTITLE0=Shout Sister Shout
TTITLE1=You Got To Move
TTITLE2=Freight Train
TTITLE3=Dallas
TTITLE4=Can't Be Satisfied
TTITLE5=Tell Me Baby
TTITLE6=I Saw The Light
TTITLE7=Pony Blues
TTITLE8=Baby What You Want Me To Do
TTITLE9=Death Letter Blues
TTITLE10=I Wish I Was In Heaven Sitting Down
TTITLE11=I Can't Hardly Get Along
TTITLE12=Brownsville Blues
TTITLE13=Corn Bread, Peas and Black Molasses
TTITLE14=I Shall Not Be Moved
EXTD=
EXTT0=
EXTT1=
EXTT2=
EXTT3=
EXTT4=
EXTT5=
EXTT6=
EXTT7=
EXTT8=
EXTT9=
EXTT10=
EXTT11=
EXTT12=
EXTT13=
EXTT14=
PLAYORDER=
